<?xml version="1.0" standalone="no"?>
<!DOCTYPE svg PUBLIC "-//W3C//DTD SVG 20010904//EN"
 "http://www.w3.org/TR/2001/REC-SVG-20010904/DTD/svg10.dtd">
<svg version="1.0" xmlns="http://www.w3.org/2000/svg"
 width="225.000000pt" height="225.000000pt" viewBox="0 0 225.000000 225.000000"
 preserveAspectRatio="xMidYMid meet">
<metadata>
Created by potrace 1.11, written by Peter Selinger 2001-2013
</metadata>
<g transform="translate(0.000000,225.000000) scale(0.100000,-0.100000)"
fill="#000000" stroke="none">
<path d="M707 2243 c-13 -13 -6 -23 33 -49 l40 -27 -6 -206 -7 -206 -43 -50
c-24 -27 -62 -71 -86 -97 l-43 -47 -123 -12 c-140 -14 -177 -28 -205 -83 -15
-28 -18 -47 -12 -83 l7 -46 50 49 50 49 -103 -170 c-70 -116 -102 -180 -102
-200 0 -17 38 -110 90 -217 77 -159 96 -189 123 -203 19 -10 42 -14 57 -10 38
9 73 50 73 84 0 16 -33 97 -75 182 -67 137 -73 155 -61 173 7 12 44 74 81 139
37 65 71 120 75 122 4 3 -10 -57 -32 -133 l-39 -137 46 -99 45 -98 68 6 c195
18 182 15 182 46 0 15 -11 135 -25 266 -14 131 -25 243 -25 250 0 6 47 64 105
128 l105 116 0 103 c0 57 3 138 6 180 6 65 9 75 21 65 24 -19 39 -56 83 -203
23 -76 49 -153 57 -170 9 -16 85 -100 169 -186 100 -102 160 -171 173 -200 24
-52 26 -111 10 -379 -8 -149 -8 -192 3 -220 23 -63 211 -389 242 -421 27 -28
265 -155 323 -173 15 -5 28 -1 42 13 21 21 21 26 21 1069 0 932 -2 1050 -16
1070 l-15 22 -678 0 c-373 0 -681 -3 -684 -7z"/>
<path d="M374 1965 c-94 -47 -130 -154 -84 -250 52 -108 198 -140 287 -62 112
99 87 265 -49 322 -53 21 -97 19 -154 -10z"/>
<path d="M560 836 c0 -2 7 -20 15 -39 19 -47 19 -110 0 -147 -12 -23 -13 -30
-3 -30 7 0 92 -11 188 -24 l175 -23 174 -122 c178 -124 199 -133 255 -111 30
11 66 65 66 97 0 51 -27 77 -217 210 l-193 135 -213 29 c-214 29 -247 32 -247
25z"/>
<path d="M830 483 c0 -5 27 -102 59 -216 63 -223 78 -252 137 -263 46 -8 98
19 119 63 17 35 16 39 -16 160 l-34 123 -100 70 c-74 52 -108 70 -132 70 -18
0 -33 -3 -33 -7z"/>
</g>
</svg>
